<mxfile host="app.diagrams.net" modified="2022-08-25T11:07:05.043Z" agent="5.0 (Macintosh; Intel Mac OS X 10_15_7) AppleWebKit/537.36 (KHTML, like Gecko) Chrome/104.0.5112.81 Safari/537.36 Edg/104.0.1293.54" etag="JSlA7gqf227BnosHZVrD" version="20.2.7" type="github">
  <diagram id="aWJN8Z28Av88h7mdpylA" name="第 1 页">
    <mxGraphModel dx="2380" dy="1099" grid="1" gridSize="10" guides="1" tooltips="1" connect="1" arrows="1" fold="1" page="1" pageScale="1" pageWidth="827" pageHeight="1169" math="0" shadow="0">
      <root>
        <mxCell id="0" />
        <mxCell id="1" parent="0" />
        <mxCell id="BVtKt6DLzAD4sJUuW1fs-55" value="" style="rounded=0;whiteSpace=wrap;html=1;" parent="1" vertex="1">
          <mxGeometry x="1890" y="290" width="490" height="890" as="geometry" />
        </mxCell>
        <mxCell id="ZVE0ramNpkpX6An3514g-1" value="" style="rounded=0;whiteSpace=wrap;html=1;" parent="1" vertex="1">
          <mxGeometry x="120" y="290" width="610" height="890" as="geometry" />
        </mxCell>
        <mxCell id="ZVE0ramNpkpX6An3514g-3" value="" style="rounded=0;whiteSpace=wrap;html=1;" parent="1" vertex="1">
          <mxGeometry x="730" y="290" width="530" height="890" as="geometry" />
        </mxCell>
        <mxCell id="ZVE0ramNpkpX6An3514g-4" value="" style="rounded=0;whiteSpace=wrap;html=1;" parent="1" vertex="1">
          <mxGeometry x="1260" y="290" width="630" height="890" as="geometry" />
        </mxCell>
        <mxCell id="DVyZ4jCFNixJxI_cVR2E-86" style="edgeStyle=orthogonalEdgeStyle;rounded=0;orthogonalLoop=1;jettySize=auto;html=1;entryX=0;entryY=0.5;entryDx=0;entryDy=0;fontSize=14;" edge="1" parent="1" source="DVyZ4jCFNixJxI_cVR2E-95" target="DVyZ4jCFNixJxI_cVR2E-79">
          <mxGeometry relative="1" as="geometry">
            <mxPoint x="261.25000000000045" y="370.0000000000002" as="sourcePoint" />
          </mxGeometry>
        </mxCell>
        <mxCell id="BVtKt6DLzAD4sJUuW1fs-1" value="&lt;span style=&quot;font-size: 14px;&quot;&gt;词条创作期&lt;/span&gt;" style="rounded=0;whiteSpace=wrap;html=1;" parent="1" vertex="1">
          <mxGeometry x="120" y="290" width="610" height="30" as="geometry" />
        </mxCell>
        <mxCell id="BVtKt6DLzAD4sJUuW1fs-2" value="&lt;span style=&quot;font-size: 14px;&quot;&gt;知识库沉淀&lt;/span&gt;" style="rounded=0;whiteSpace=wrap;html=1;" parent="1" vertex="1">
          <mxGeometry x="730" y="290" width="530" height="30" as="geometry" />
        </mxCell>
        <mxCell id="BVtKt6DLzAD4sJUuW1fs-6" value="" style="endArrow=none;html=1;rounded=0;fontSize=14;exitX=0.053;exitY=1.002;exitDx=0;exitDy=0;exitPerimeter=0;" parent="1" source="ZVE0ramNpkpX6An3514g-1" edge="1">
          <mxGeometry width="50" height="50" relative="1" as="geometry">
            <mxPoint x="130" y="340" as="sourcePoint" />
            <mxPoint x="150" y="290" as="targetPoint" />
          </mxGeometry>
        </mxCell>
        <mxCell id="BVtKt6DLzAD4sJUuW1fs-7" value="贡&lt;br&gt;献&lt;br&gt;人" style="text;html=1;strokeColor=none;fillColor=none;align=center;verticalAlign=middle;whiteSpace=wrap;rounded=0;fontSize=14;" parent="1" vertex="1">
          <mxGeometry x="120" y="390" width="30" height="80" as="geometry" />
        </mxCell>
        <mxCell id="BVtKt6DLzAD4sJUuW1fs-10" value="" style="endArrow=none;dashed=1;html=1;rounded=0;fontSize=14;entryX=0.999;entryY=0.262;entryDx=0;entryDy=0;entryPerimeter=0;exitX=0.003;exitY=0.266;exitDx=0;exitDy=0;exitPerimeter=0;" parent="1" target="BVtKt6DLzAD4sJUuW1fs-55" edge="1" source="ZVE0ramNpkpX6An3514g-4">
          <mxGeometry width="50" height="50" relative="1" as="geometry">
            <mxPoint x="1260" y="500" as="sourcePoint" />
            <mxPoint x="2620" y="490" as="targetPoint" />
          </mxGeometry>
        </mxCell>
        <mxCell id="BVtKt6DLzAD4sJUuW1fs-11" value="管&lt;br&gt;理&lt;br&gt;员" style="text;html=1;strokeColor=none;fillColor=none;align=center;verticalAlign=middle;whiteSpace=wrap;rounded=0;fontSize=14;" parent="1" vertex="1">
          <mxGeometry x="120" y="620" width="30" height="80" as="geometry" />
        </mxCell>
        <mxCell id="BVtKt6DLzAD4sJUuW1fs-12" value="" style="endArrow=none;dashed=1;html=1;rounded=0;fontSize=14;entryX=1.002;entryY=0.569;entryDx=0;entryDy=0;entryPerimeter=0;exitX=-0.002;exitY=0.573;exitDx=0;exitDy=0;exitPerimeter=0;" parent="1" edge="1">
          <mxGeometry width="50" height="50" relative="1" as="geometry">
            <mxPoint x="1248.7399999999998" y="803.3999999999999" as="sourcePoint" />
            <mxPoint x="2370.9800000000005" y="800.2" as="targetPoint" />
          </mxGeometry>
        </mxCell>
        <mxCell id="BVtKt6DLzAD4sJUuW1fs-13" value="用&lt;br&gt;户" style="text;html=1;strokeColor=none;fillColor=none;align=center;verticalAlign=middle;whiteSpace=wrap;rounded=0;fontSize=14;" parent="1" vertex="1">
          <mxGeometry x="120" y="963.13" width="30" height="80" as="geometry" />
        </mxCell>
        <mxCell id="BVtKt6DLzAD4sJUuW1fs-33" style="edgeStyle=orthogonalEdgeStyle;rounded=0;orthogonalLoop=1;jettySize=auto;html=1;entryX=1;entryY=0.5;entryDx=0;entryDy=0;fontSize=14;entryPerimeter=0;" parent="1" source="BVtKt6DLzAD4sJUuW1fs-26" target="DVyZ4jCFNixJxI_cVR2E-95" edge="1">
          <mxGeometry relative="1" as="geometry">
            <mxPoint x="295.00000000000045" y="355.0000000000002" as="targetPoint" />
          </mxGeometry>
        </mxCell>
        <mxCell id="BVtKt6DLzAD4sJUuW1fs-26" value="词条修改" style="rounded=0;whiteSpace=wrap;html=1;" parent="1" vertex="1">
          <mxGeometry x="370" y="340" width="135" height="30" as="geometry" />
        </mxCell>
        <mxCell id="DVyZ4jCFNixJxI_cVR2E-24" value="动态下发" style="edgeStyle=orthogonalEdgeStyle;rounded=0;orthogonalLoop=1;jettySize=auto;html=1;fontSize=14;" edge="1" parent="1" source="BVtKt6DLzAD4sJUuW1fs-37" target="DVyZ4jCFNixJxI_cVR2E-22">
          <mxGeometry relative="1" as="geometry" />
        </mxCell>
        <mxCell id="BVtKt6DLzAD4sJUuW1fs-37" value="词条库" style="rounded=0;whiteSpace=wrap;html=1;" parent="1" vertex="1">
          <mxGeometry x="1022.5" y="521.25" width="155" height="102.5" as="geometry" />
        </mxCell>
        <mxCell id="BVtKt6DLzAD4sJUuW1fs-40" value="&lt;span style=&quot;font-size: 14px;&quot;&gt;词条应用期&lt;/span&gt;" style="rounded=0;whiteSpace=wrap;html=1;" parent="1" vertex="1">
          <mxGeometry x="1260" y="290" width="630" height="30" as="geometry" />
        </mxCell>
        <mxCell id="BVtKt6DLzAD4sJUuW1fs-56" value="&lt;span style=&quot;font-size: 14px;&quot;&gt;词条运营期&lt;/span&gt;" style="rounded=0;whiteSpace=wrap;html=1;" parent="1" vertex="1">
          <mxGeometry x="1890" y="290" width="490" height="30" as="geometry" />
        </mxCell>
        <mxCell id="DVyZ4jCFNixJxI_cVR2E-29" style="edgeStyle=orthogonalEdgeStyle;rounded=0;orthogonalLoop=1;jettySize=auto;html=1;entryX=0;entryY=0.5;entryDx=0;entryDy=0;fontSize=14;" edge="1" parent="1" source="BVtKt6DLzAD4sJUuW1fs-64" target="DVyZ4jCFNixJxI_cVR2E-43">
          <mxGeometry relative="1" as="geometry">
            <mxPoint x="2040.0100000000002" y="988.75" as="targetPoint" />
          </mxGeometry>
        </mxCell>
        <mxCell id="BVtKt6DLzAD4sJUuW1fs-64" value="词条详情展示" style="rounded=0;whiteSpace=wrap;html=1;" parent="1" vertex="1">
          <mxGeometry x="1654" y="855.97" width="135" height="30" as="geometry" />
        </mxCell>
        <mxCell id="BVtKt6DLzAD4sJUuW1fs-75" style="edgeStyle=orthogonalEdgeStyle;rounded=0;orthogonalLoop=1;jettySize=auto;html=1;entryX=0.5;entryY=1;entryDx=0;entryDy=0;fontSize=14;" parent="1" edge="1">
          <mxGeometry relative="1" as="geometry">
            <mxPoint x="2125" y="680" as="targetPoint" />
            <mxPoint x="2125" y="890" as="sourcePoint" />
            <Array as="points">
              <mxPoint x="2125" y="830" />
              <mxPoint x="2125" y="830" />
            </Array>
          </mxGeometry>
        </mxCell>
        <mxCell id="BVtKt6DLzAD4sJUuW1fs-79" style="edgeStyle=orthogonalEdgeStyle;rounded=0;orthogonalLoop=1;jettySize=auto;html=1;fontSize=14;entryX=0.5;entryY=1;entryDx=0;entryDy=0;" parent="1" source="BVtKt6DLzAD4sJUuW1fs-78" target="DVyZ4jCFNixJxI_cVR2E-15" edge="1">
          <mxGeometry relative="1" as="geometry">
            <mxPoint x="2130" y="430" as="targetPoint" />
          </mxGeometry>
        </mxCell>
        <mxCell id="BVtKt6DLzAD4sJUuW1fs-80" value="正反馈" style="edgeLabel;html=1;align=center;verticalAlign=middle;resizable=0;points=[];fontSize=14;" parent="BVtKt6DLzAD4sJUuW1fs-79" vertex="1" connectable="0">
          <mxGeometry x="-0.0684" y="-2" relative="1" as="geometry">
            <mxPoint as="offset" />
          </mxGeometry>
        </mxCell>
        <mxCell id="BVtKt6DLzAD4sJUuW1fs-84" style="edgeStyle=orthogonalEdgeStyle;rounded=0;orthogonalLoop=1;jettySize=auto;html=1;entryX=1;entryY=0.5;entryDx=0;entryDy=0;fontSize=14;" parent="1" source="BVtKt6DLzAD4sJUuW1fs-78" target="BVtKt6DLzAD4sJUuW1fs-26" edge="1">
          <mxGeometry relative="1" as="geometry">
            <Array as="points">
              <mxPoint x="1950" y="645" />
              <mxPoint x="1950" y="355" />
            </Array>
          </mxGeometry>
        </mxCell>
        <mxCell id="BVtKt6DLzAD4sJUuW1fs-85" value="负反馈" style="edgeLabel;html=1;align=center;verticalAlign=middle;resizable=0;points=[];fontSize=14;" parent="BVtKt6DLzAD4sJUuW1fs-84" vertex="1" connectable="0">
          <mxGeometry x="-0.6593" y="-1" relative="1" as="geometry">
            <mxPoint y="81" as="offset" />
          </mxGeometry>
        </mxCell>
        <mxCell id="BVtKt6DLzAD4sJUuW1fs-78" value="反馈收集" style="html=1;whiteSpace=wrap;aspect=fixed;shape=isoRectangle;fontSize=14;" parent="1" vertex="1">
          <mxGeometry x="2070.84" y="612.5" width="108.33" height="65" as="geometry" />
        </mxCell>
        <mxCell id="DVyZ4jCFNixJxI_cVR2E-91" style="edgeStyle=orthogonalEdgeStyle;rounded=0;orthogonalLoop=1;jettySize=auto;html=1;entryX=0;entryY=0.5;entryDx=0;entryDy=0;fontSize=14;" edge="1" parent="1" source="DVyZ4jCFNixJxI_cVR2E-22" target="DVyZ4jCFNixJxI_cVR2E-53">
          <mxGeometry relative="1" as="geometry" />
        </mxCell>
        <mxCell id="DVyZ4jCFNixJxI_cVR2E-22" value="解析器" style="rounded=0;whiteSpace=wrap;html=1;" vertex="1" parent="1">
          <mxGeometry x="1030" y="808.75" width="140" height="127.5" as="geometry" />
        </mxCell>
        <mxCell id="DVyZ4jCFNixJxI_cVR2E-27" value="" style="endArrow=none;dashed=1;html=1;dashPattern=1 3;strokeWidth=2;rounded=0;fontSize=14;exitX=-0.004;exitY=0.27;exitDx=0;exitDy=0;exitPerimeter=0;" edge="1" parent="1">
          <mxGeometry width="50" height="50" relative="1" as="geometry">
            <mxPoint x="117.55999999999995" y="529.3" as="sourcePoint" />
            <mxPoint x="730" y="529" as="targetPoint" />
          </mxGeometry>
        </mxCell>
        <mxCell id="DVyZ4jCFNixJxI_cVR2E-28" value="" style="endArrow=none;dashed=1;html=1;dashPattern=1 3;strokeWidth=2;rounded=0;fontSize=14;" edge="1" parent="1">
          <mxGeometry width="50" height="50" relative="1" as="geometry">
            <mxPoint x="110" y="815" as="sourcePoint" />
            <mxPoint x="720" y="815" as="targetPoint" />
          </mxGeometry>
        </mxCell>
        <mxCell id="DVyZ4jCFNixJxI_cVR2E-40" style="edgeStyle=orthogonalEdgeStyle;rounded=0;orthogonalLoop=1;jettySize=auto;html=1;entryX=0;entryY=0.5;entryDx=0;entryDy=0;fontSize=14;" edge="1" parent="1" target="BVtKt6DLzAD4sJUuW1fs-64">
          <mxGeometry relative="1" as="geometry">
            <mxPoint x="1417.5" y="870.98" as="sourcePoint" />
          </mxGeometry>
        </mxCell>
        <mxCell id="DVyZ4jCFNixJxI_cVR2E-54" value="匹配成功" style="edgeLabel;html=1;align=center;verticalAlign=middle;resizable=0;points=[];fontSize=14;" vertex="1" connectable="0" parent="DVyZ4jCFNixJxI_cVR2E-40">
          <mxGeometry x="0.1467" y="-3" relative="1" as="geometry">
            <mxPoint x="-1" as="offset" />
          </mxGeometry>
        </mxCell>
        <mxCell id="DVyZ4jCFNixJxI_cVR2E-96" style="edgeStyle=orthogonalEdgeStyle;rounded=0;orthogonalLoop=1;jettySize=auto;html=1;fontSize=14;entryX=0.5;entryY=1;entryDx=0;entryDy=0;" edge="1" parent="1" source="DVyZ4jCFNixJxI_cVR2E-42" target="DVyZ4jCFNixJxI_cVR2E-65">
          <mxGeometry relative="1" as="geometry" />
        </mxCell>
        <mxCell id="DVyZ4jCFNixJxI_cVR2E-42" value="" style="rounded=0;whiteSpace=wrap;html=1;fontSize=14;" vertex="1" parent="1">
          <mxGeometry x="750" y="755" width="230" height="280" as="geometry" />
        </mxCell>
        <mxCell id="DVyZ4jCFNixJxI_cVR2E-43" value="" style="rounded=0;whiteSpace=wrap;html=1;fontSize=14;" vertex="1" parent="1">
          <mxGeometry x="2020.01" y="836.6" width="210" height="68.75" as="geometry" />
        </mxCell>
        <mxCell id="DVyZ4jCFNixJxI_cVR2E-44" value="点赞" style="rounded=0;whiteSpace=wrap;html=1;fontSize=14;" vertex="1" parent="1">
          <mxGeometry x="2030.01" y="848.12" width="80" height="48.75" as="geometry" />
        </mxCell>
        <mxCell id="DVyZ4jCFNixJxI_cVR2E-45" value="负反馈" style="rounded=0;whiteSpace=wrap;html=1;fontSize=14;" vertex="1" parent="1">
          <mxGeometry x="2140.01" y="848.12" width="80" height="48.75" as="geometry" />
        </mxCell>
        <mxCell id="DVyZ4jCFNixJxI_cVR2E-52" style="edgeStyle=orthogonalEdgeStyle;rounded=0;orthogonalLoop=1;jettySize=auto;html=1;entryX=0.5;entryY=1;entryDx=0;entryDy=0;fontSize=14;exitX=0;exitY=0.75;exitDx=0;exitDy=0;" edge="1" parent="1" source="DVyZ4jCFNixJxI_cVR2E-49" target="DVyZ4jCFNixJxI_cVR2E-50">
          <mxGeometry relative="1" as="geometry">
            <mxPoint x="2010" y="1040" as="sourcePoint" />
            <Array as="points">
              <mxPoint x="220" y="1130" />
            </Array>
          </mxGeometry>
        </mxCell>
        <mxCell id="DVyZ4jCFNixJxI_cVR2E-49" value="创作邀请" style="rounded=0;whiteSpace=wrap;html=1;fontSize=14;" vertex="1" parent="1">
          <mxGeometry x="2080.01" y="1054.5" width="90" height="100" as="geometry" />
        </mxCell>
        <mxCell id="DVyZ4jCFNixJxI_cVR2E-51" style="edgeStyle=orthogonalEdgeStyle;rounded=0;orthogonalLoop=1;jettySize=auto;html=1;fontSize=14;" edge="1" parent="1" source="DVyZ4jCFNixJxI_cVR2E-50">
          <mxGeometry relative="1" as="geometry">
            <mxPoint x="220" y="370" as="targetPoint" />
            <Array as="points">
              <mxPoint x="220" y="370" />
            </Array>
          </mxGeometry>
        </mxCell>
        <mxCell id="DVyZ4jCFNixJxI_cVR2E-50" value="词条收集" style="rounded=0;whiteSpace=wrap;html=1;fontSize=14;" vertex="1" parent="1">
          <mxGeometry x="160" y="696.01" width="120" height="60" as="geometry" />
        </mxCell>
        <mxCell id="DVyZ4jCFNixJxI_cVR2E-55" style="edgeStyle=orthogonalEdgeStyle;rounded=0;orthogonalLoop=1;jettySize=auto;html=1;fontSize=14;entryX=0.5;entryY=0;entryDx=0;entryDy=0;" edge="1" parent="1" source="DVyZ4jCFNixJxI_cVR2E-53" target="DVyZ4jCFNixJxI_cVR2E-49">
          <mxGeometry relative="1" as="geometry">
            <mxPoint x="2001" y="1080" as="targetPoint" />
            <Array as="points">
              <mxPoint x="1365" y="950" />
              <mxPoint x="2125" y="950" />
            </Array>
          </mxGeometry>
        </mxCell>
        <mxCell id="DVyZ4jCFNixJxI_cVR2E-56" value="词条未匹配" style="edgeLabel;html=1;align=center;verticalAlign=middle;resizable=0;points=[];fontSize=14;" vertex="1" connectable="0" parent="DVyZ4jCFNixJxI_cVR2E-55">
          <mxGeometry x="-0.0268" y="5" relative="1" as="geometry">
            <mxPoint x="-6" as="offset" />
          </mxGeometry>
        </mxCell>
        <mxCell id="DVyZ4jCFNixJxI_cVR2E-53" value="词条匹配结果" style="rhombus;whiteSpace=wrap;html=1;fontSize=14;" vertex="1" parent="1">
          <mxGeometry x="1312.5" y="833" width="110" height="79" as="geometry" />
        </mxCell>
        <mxCell id="DVyZ4jCFNixJxI_cVR2E-57" value="贡献记录" style="rounded=0;whiteSpace=wrap;html=1;fontSize=14;" vertex="1" parent="1">
          <mxGeometry x="770" y="800" width="190" height="40" as="geometry" />
        </mxCell>
        <mxCell id="DVyZ4jCFNixJxI_cVR2E-58" value="搜索反馈" style="rounded=0;whiteSpace=wrap;html=1;fontSize=14;" vertex="1" parent="1">
          <mxGeometry x="770" y="865" width="190" height="40" as="geometry" />
        </mxCell>
        <mxCell id="DVyZ4jCFNixJxI_cVR2E-59" value="查看历史" style="rounded=0;whiteSpace=wrap;html=1;fontSize=14;" vertex="1" parent="1">
          <mxGeometry x="770" y="920" width="190" height="40" as="geometry" />
        </mxCell>
        <mxCell id="DVyZ4jCFNixJxI_cVR2E-60" value="互动行为" style="rounded=0;whiteSpace=wrap;html=1;fontSize=14;" vertex="1" parent="1">
          <mxGeometry x="770" y="983.13" width="190" height="40" as="geometry" />
        </mxCell>
        <mxCell id="DVyZ4jCFNixJxI_cVR2E-64" value="数据沉淀" style="text;html=1;strokeColor=none;fillColor=none;align=center;verticalAlign=middle;whiteSpace=wrap;rounded=0;fontSize=14;" vertex="1" parent="1">
          <mxGeometry x="815" y="756.01" width="100" height="28.75" as="geometry" />
        </mxCell>
        <mxCell id="DVyZ4jCFNixJxI_cVR2E-65" value="数据运营看板" style="rounded=0;whiteSpace=wrap;html=1;fontSize=14;" vertex="1" parent="1">
          <mxGeometry x="552.5" y="695" width="120" height="60" as="geometry" />
        </mxCell>
        <mxCell id="DVyZ4jCFNixJxI_cVR2E-67" value="" style="endArrow=classic;html=1;rounded=0;fontSize=14;entryX=0.92;entryY=-0.035;entryDx=0;entryDy=0;entryPerimeter=0;" edge="1" parent="1">
          <mxGeometry width="50" height="50" relative="1" as="geometry">
            <mxPoint x="866.5" y="571.01" as="sourcePoint" />
            <mxPoint x="863.5" y="756.0137499999998" as="targetPoint" />
          </mxGeometry>
        </mxCell>
        <mxCell id="DVyZ4jCFNixJxI_cVR2E-68" value="沉淀数据" style="edgeLabel;html=1;align=center;verticalAlign=middle;resizable=0;points=[];fontSize=14;" vertex="1" connectable="0" parent="DVyZ4jCFNixJxI_cVR2E-67">
          <mxGeometry x="-0.2032" y="1" relative="1" as="geometry">
            <mxPoint x="-1" y="6" as="offset" />
          </mxGeometry>
        </mxCell>
        <mxCell id="DVyZ4jCFNixJxI_cVR2E-85" style="edgeStyle=orthogonalEdgeStyle;rounded=0;orthogonalLoop=1;jettySize=auto;html=1;exitX=1;exitY=0.5;exitDx=0;exitDy=0;fontSize=14;" edge="1" parent="1" source="DVyZ4jCFNixJxI_cVR2E-78" target="BVtKt6DLzAD4sJUuW1fs-37">
          <mxGeometry relative="1" as="geometry" />
        </mxCell>
        <mxCell id="DVyZ4jCFNixJxI_cVR2E-78" value="分类管理" style="rounded=0;whiteSpace=wrap;html=1;fontSize=14;" vertex="1" parent="1">
          <mxGeometry x="552.5" y="542.5" width="120" height="60" as="geometry" />
        </mxCell>
        <mxCell id="DVyZ4jCFNixJxI_cVR2E-83" style="edgeStyle=orthogonalEdgeStyle;rounded=0;orthogonalLoop=1;jettySize=auto;html=1;exitX=1;exitY=0.5;exitDx=0;exitDy=0;fontSize=14;" edge="1" parent="1" source="DVyZ4jCFNixJxI_cVR2E-79" target="DVyZ4jCFNixJxI_cVR2E-78">
          <mxGeometry relative="1" as="geometry" />
        </mxCell>
        <mxCell id="DVyZ4jCFNixJxI_cVR2E-84" style="edgeStyle=orthogonalEdgeStyle;rounded=0;orthogonalLoop=1;jettySize=auto;html=1;exitX=0.5;exitY=0;exitDx=0;exitDy=0;entryX=0.5;entryY=1;entryDx=0;entryDy=0;fontSize=14;" edge="1" parent="1" source="DVyZ4jCFNixJxI_cVR2E-79" target="BVtKt6DLzAD4sJUuW1fs-26">
          <mxGeometry relative="1" as="geometry" />
        </mxCell>
        <mxCell id="DVyZ4jCFNixJxI_cVR2E-79" value="词条审核" style="rhombus;whiteSpace=wrap;html=1;fontSize=14;" vertex="1" parent="1">
          <mxGeometry x="382.5" y="532.5" width="110" height="80" as="geometry" />
        </mxCell>
        <mxCell id="DVyZ4jCFNixJxI_cVR2E-87" value="" style="group" vertex="1" connectable="0" parent="1">
          <mxGeometry x="1312.5" y="977" width="515" height="142.5" as="geometry" />
        </mxCell>
        <mxCell id="BVtKt6DLzAD4sJUuW1fs-44" value="" style="rounded=0;whiteSpace=wrap;html=1;" parent="DVyZ4jCFNixJxI_cVR2E-87" vertex="1">
          <mxGeometry x="170" y="12.5" width="345" height="130" as="geometry" />
        </mxCell>
        <mxCell id="BVtKt6DLzAD4sJUuW1fs-45" value="IM聊天" style="rounded=0;whiteSpace=wrap;html=1;" parent="DVyZ4jCFNixJxI_cVR2E-87" vertex="1">
          <mxGeometry x="185" y="22.5" width="147" height="30" as="geometry" />
        </mxCell>
        <mxCell id="BVtKt6DLzAD4sJUuW1fs-46" value="云文档" style="rounded=0;whiteSpace=wrap;html=1;" parent="DVyZ4jCFNixJxI_cVR2E-87" vertex="1">
          <mxGeometry x="355" y="22.5" width="146" height="30" as="geometry" />
        </mxCell>
        <mxCell id="BVtKt6DLzAD4sJUuW1fs-47" value="ME搜索" style="rounded=0;whiteSpace=wrap;html=1;" parent="DVyZ4jCFNixJxI_cVR2E-87" vertex="1">
          <mxGeometry x="186" y="62.5" width="146" height="30" as="geometry" />
        </mxCell>
        <mxCell id="BVtKt6DLzAD4sJUuW1fs-50" value="问答机器人" style="rounded=0;whiteSpace=wrap;html=1;" parent="DVyZ4jCFNixJxI_cVR2E-87" vertex="1">
          <mxGeometry x="355" y="62.5" width="146" height="30" as="geometry" />
        </mxCell>
        <mxCell id="DVyZ4jCFNixJxI_cVR2E-32" value="开&lt;br&gt;关&lt;br&gt;设&lt;br&gt;置" style="rounded=0;whiteSpace=wrap;html=1;" vertex="1" parent="DVyZ4jCFNixJxI_cVR2E-87">
          <mxGeometry x="80" y="22.5" width="30" height="110" as="geometry" />
        </mxCell>
        <mxCell id="DVyZ4jCFNixJxI_cVR2E-34" style="edgeStyle=orthogonalEdgeStyle;rounded=0;orthogonalLoop=1;jettySize=auto;html=1;entryX=1;entryY=0.5;entryDx=0;entryDy=0;fontSize=14;" edge="1" parent="DVyZ4jCFNixJxI_cVR2E-87" source="BVtKt6DLzAD4sJUuW1fs-44" target="DVyZ4jCFNixJxI_cVR2E-32">
          <mxGeometry relative="1" as="geometry" />
        </mxCell>
        <mxCell id="DVyZ4jCFNixJxI_cVR2E-33" value="词&lt;br&gt;条&lt;br&gt;订&lt;br&gt;阅" style="rounded=0;whiteSpace=wrap;html=1;" vertex="1" parent="DVyZ4jCFNixJxI_cVR2E-87">
          <mxGeometry y="22.5" width="30" height="110" as="geometry" />
        </mxCell>
        <mxCell id="DVyZ4jCFNixJxI_cVR2E-36" style="edgeStyle=orthogonalEdgeStyle;rounded=0;orthogonalLoop=1;jettySize=auto;html=1;entryX=1;entryY=0.5;entryDx=0;entryDy=0;fontSize=14;" edge="1" parent="DVyZ4jCFNixJxI_cVR2E-87" source="DVyZ4jCFNixJxI_cVR2E-32" target="DVyZ4jCFNixJxI_cVR2E-33">
          <mxGeometry relative="1" as="geometry" />
        </mxCell>
        <mxCell id="DVyZ4jCFNixJxI_cVR2E-62" value="百科搜索" style="rounded=0;whiteSpace=wrap;html=1;" vertex="1" parent="DVyZ4jCFNixJxI_cVR2E-87">
          <mxGeometry x="185" y="102.5" width="146" height="30" as="geometry" />
        </mxCell>
        <mxCell id="DVyZ4jCFNixJxI_cVR2E-63" value="......" style="rounded=0;whiteSpace=wrap;html=1;" vertex="1" parent="DVyZ4jCFNixJxI_cVR2E-87">
          <mxGeometry x="355" y="102.5" width="146" height="30" as="geometry" />
        </mxCell>
        <mxCell id="DVyZ4jCFNixJxI_cVR2E-92" value="用户触发" style="edgeStyle=orthogonalEdgeStyle;rounded=0;orthogonalLoop=1;jettySize=auto;html=1;entryX=0.5;entryY=1;entryDx=0;entryDy=0;fontSize=14;" edge="1" parent="1" source="DVyZ4jCFNixJxI_cVR2E-33" target="DVyZ4jCFNixJxI_cVR2E-22">
          <mxGeometry x="0.668" relative="1" as="geometry">
            <mxPoint as="offset" />
          </mxGeometry>
        </mxCell>
        <mxCell id="DVyZ4jCFNixJxI_cVR2E-93" value="" style="group" vertex="1" connectable="0" parent="1">
          <mxGeometry x="2005" y="330" width="240" height="100" as="geometry" />
        </mxCell>
        <mxCell id="DVyZ4jCFNixJxI_cVR2E-15" value="" style="rounded=0;whiteSpace=wrap;html=1;fontSize=14;" vertex="1" parent="DVyZ4jCFNixJxI_cVR2E-93">
          <mxGeometry width="240" height="100" as="geometry" />
        </mxCell>
        <mxCell id="BVtKt6DLzAD4sJUuW1fs-76" value="贡献人信息" style="rounded=0;whiteSpace=wrap;html=1;" parent="DVyZ4jCFNixJxI_cVR2E-93" vertex="1">
          <mxGeometry y="20" width="120" height="30" as="geometry" />
        </mxCell>
        <mxCell id="DVyZ4jCFNixJxI_cVR2E-16" value="专家画像" style="rounded=0;whiteSpace=wrap;html=1;" vertex="1" parent="DVyZ4jCFNixJxI_cVR2E-93">
          <mxGeometry x="130" y="20" width="110" height="30" as="geometry" />
        </mxCell>
        <mxCell id="DVyZ4jCFNixJxI_cVR2E-18" value="感谢信" style="rounded=0;whiteSpace=wrap;html=1;" vertex="1" parent="DVyZ4jCFNixJxI_cVR2E-93">
          <mxGeometry y="60" width="120" height="30" as="geometry" />
        </mxCell>
        <mxCell id="DVyZ4jCFNixJxI_cVR2E-19" value="虚拟激励" style="rounded=0;whiteSpace=wrap;html=1;" vertex="1" parent="DVyZ4jCFNixJxI_cVR2E-93">
          <mxGeometry x="130" y="60" width="110" height="30" as="geometry" />
        </mxCell>
        <mxCell id="DVyZ4jCFNixJxI_cVR2E-21" value="创作激励" style="text;html=1;strokeColor=none;fillColor=none;align=center;verticalAlign=middle;whiteSpace=wrap;rounded=0;fontSize=14;" vertex="1" parent="DVyZ4jCFNixJxI_cVR2E-93">
          <mxGeometry x="61.5" width="117" height="20" as="geometry" />
        </mxCell>
        <mxCell id="DVyZ4jCFNixJxI_cVR2E-95" value="词条创作" style="strokeWidth=2;html=1;shape=mxgraph.flowchart.terminator;whiteSpace=wrap;fontSize=14;" vertex="1" parent="1">
          <mxGeometry x="170" y="325" width="100" height="60" as="geometry" />
        </mxCell>
        <mxCell id="DVyZ4jCFNixJxI_cVR2E-98" value="沉淀数据" style="edgeStyle=orthogonalEdgeStyle;rounded=0;orthogonalLoop=1;jettySize=auto;html=1;exitX=0;exitY=0.5;exitDx=0;exitDy=0;entryX=0.5;entryY=1;entryDx=0;entryDy=0;fontSize=14;" edge="1" parent="1" source="DVyZ4jCFNixJxI_cVR2E-33" target="DVyZ4jCFNixJxI_cVR2E-42">
          <mxGeometry x="0.6794" relative="1" as="geometry">
            <mxPoint as="offset" />
          </mxGeometry>
        </mxCell>
      </root>
    </mxGraphModel>
  </diagram>
</mxfile>
